<svg width="26" height="25" viewBox="0 0 26 25" fill="none" xmlns="http://www.w3.org/2000/svg">
<g id="apple 1" clip-path="url(#clip0_10_729)">
<g id="Group">
<g id="Group_2">
<path id="Vector" d="M17.9305 0.541626C16.6021 0.629972 15.0495 1.44755 14.1447 2.51219C13.3193 3.478 12.6404 4.9125 12.9051 6.30657C14.3565 6.34999 15.8562 5.51295 16.7252 4.43034C17.5381 3.4226 18.1532 1.99709 17.9305 0.541626Z" fill="#A8A8A8"/>
</g>
</g>
<g id="Group_3">
<g id="Group_4">
<path id="Vector_2" d="M23.18 8.57955C21.9046 7.04174 20.1121 6.14929 18.4194 6.14929C16.1846 6.14929 15.2393 7.178 13.6867 7.178C12.0858 7.178 10.8696 6.15229 8.93695 6.15229C7.0386 6.15229 5.01723 7.26784 3.73557 9.17551C1.93377 11.8618 2.24212 16.9125 5.16206 21.2145C6.20701 22.7538 7.60235 24.4848 9.4275 24.4998C11.0518 24.5147 11.5096 23.498 13.7101 23.4875C15.9105 23.4756 16.3279 24.5133 17.9491 24.4968C19.7758 24.4833 21.2474 22.5652 22.2924 21.0258C23.0414 19.9223 23.3202 19.3667 23.9011 18.1209C19.6761 16.5741 18.9987 10.7972 23.18 8.57955Z" fill="#A8A8A8"/>
</g>
</g>
</g>
<defs>
<clipPath id="clip0_10_729">
<rect width="24.917" height="23.9583" fill="white" transform="translate(0.800751 0.541626)"/>
</clipPath>
</defs>
</svg>
