<svg width="26" height="25" viewBox="0 0 26 25" fill="none" xmlns="http://www.w3.org/2000/svg">
<g id="google 1" clip-path="url(#clip0_10_720)">
<path id="Vector" d="M24.9368 10.438L14.7734 10.4375C14.3246 10.4375 13.9608 10.7872 13.9608 11.2188V14.3406C13.9608 14.772 14.3246 15.1219 14.7733 15.1219H20.4967C19.87 16.6858 18.7003 17.9955 17.2079 18.8276L19.6483 22.8897C23.5631 20.7128 25.8776 16.8931 25.8776 12.6171C25.8776 12.0083 25.8309 11.5731 25.7375 11.083C25.6666 10.7107 25.3304 10.438 24.9368 10.438Z" fill="#167EE6"/>
<path id="Vector_2" d="M13.4184 19.8126C10.6175 19.8126 8.1723 18.3411 6.85905 16.1637L2.63455 18.505C4.78437 22.0876 8.81167 24.5001 13.4184 24.5001C15.6783 24.5001 17.8107 23.9151 19.6476 22.8955V22.8899L17.2072 18.8278C16.0909 19.4503 14.7991 19.8126 13.4184 19.8126Z" fill="#12B347"/>
<path id="Vector_3" d="M19.649 22.8954V22.8898L17.2085 18.8276C16.0922 19.4501 14.8005 19.8125 13.4197 19.8125V24.5C15.6796 24.5 17.8121 23.9149 19.649 22.8954Z" fill="#0F993E"/>
<path id="Vector_4" d="M5.83627 12.5209C5.83627 11.1934 6.21304 9.95144 6.86035 8.87814L2.63586 6.53687C1.56963 8.29757 0.961212 10.3424 0.961212 12.5209C0.961212 14.6994 1.56963 16.7442 2.63586 18.5049L6.86035 16.1636C6.21304 15.0903 5.83627 13.8484 5.83627 12.5209Z" fill="#FFD500"/>
<path id="Vector_5" d="M18.2344 6.89131C18.5577 7.14737 19.0276 7.12889 19.3237 6.84415L21.6241 4.63221C21.96 4.30915 21.9361 3.78033 21.5772 3.48095C19.3817 1.64945 16.525 0.541748 13.4197 0.541748V5.22925C15.2462 5.22925 16.9239 5.85329 18.2344 6.89131Z" fill="#D93F21"/>
</g>
<defs>
<clipPath id="clip0_10_720">
<rect width="24.917" height="23.9583" fill="white" transform="translate(0.960571 0.541748)"/>
</clipPath>
</defs>
</svg>
